<?xml version="1.0" encoding="UTF-8"?>
<svg width="109px" height="36px" viewBox="0 0 109 36" version="1.1" xmlns="http://www.w3.org/2000/svg" xmlns:xlink="http://www.w3.org/1999/xlink">
    <!-- Generator: Sketch 49.3 (51167) - http://www.bohemiancoding.com/sketch -->
    <title>Slice 1</title>
    <desc>Created with Sketch.</desc>
    <defs></defs>
    <g id="Page-1" stroke="none" stroke-width="1" fill="none" fill-rule="evenodd">
        <path d="M17.3,8.2 L13.3,8.2 C12.1,8.2 11.2,7.2 11.2,6.1 L11.2,2.1 C11.2,0.9 12.2,0 13.3,0 L17.3,0 C18.5,0 19.4,1 19.4,2.1 L19.4,6.1 C19.4,7.2 18.5,8.2 17.3,8.2" id="Shape" fill="#426DA9" fill-rule="nonzero"></path>
        <path d="M7,17.1 L2.5,17.1 C1.2,17.1 0.1,16 0.1,14.7 L0.1,10.2 C0.1,8.9 1.2,7.8 2.5,7.8 L7,7.8 C8.3,7.8 9.4,8.9 9.4,10.2 L9.4,14.7 C9.4,16 8.3,17.1 7,17.1" id="Shape" fill="#6D2077" fill-rule="nonzero"></path>
        <path d="M6.5,26.4 L3.8,26.4 C3,26.4 2.3,25.7 2.3,24.9 L2.3,22.2 C2.3,21.4 3,20.7 3.8,20.7 L6.5,20.7 C7.3,20.7 8,21.4 8,22.2 L8,24.9 C8,25.8 7.4,26.4 6.5,26.4" id="Shape" fill="#AF1685" fill-rule="nonzero"></path>
        <path d="M13.9,35.1 L10.7,35.1 C9.7,35.1 9,34.3 9,33.4 L9,30.2 C9,29.2 9.8,28.5 10.7,28.5 L13.9,28.5 C14.9,28.5 15.6,29.3 15.6,30.2 L15.6,33.4 C15.6,34.3 14.9,35.1 13.9,35.1" id="Shape" fill="#E63888" fill-rule="nonzero"></path>
        <path d="M25.7,9.8 L23.5,9.8 C22.8,9.8 22.3,9.3 22.3,8.6 L22.3,6.4 C22.3,5.7 22.8,5.2 23.5,5.2 L25.7,5.2 C26.4,5.2 26.9,5.7 26.9,6.4 L26.9,8.6 C26.9,9.3 26.4,9.8 25.7,9.8" id="Shape" fill="#E63888" fill-rule="nonzero"></path>
        <path d="M74.8,11.3 C75.5,11.3 76.1,10.7 76.1,10 C76.1,9.3 75.5,8.7 74.8,8.7 C74.1,8.7 73.5,9.3 73.5,10 C73.5,10.7 74.1,11.3 74.8,11.3" id="Shape" fill="#00458F" fill-rule="nonzero"></path>
        <path d="M27.6,25.1 C27.4,25.4 27.1,25.5 26.7,25.5 C26.5,25.5 26.3,25.5 26.1,25.4 C25.8,25.2 25.6,24.9 25.6,24.5 C25.6,24.3 25.7,24.2 25.7,24 L28.7,19.3 L25.7,14.6 C25.6,14.5 25.6,14.3 25.6,14.1 C25.6,13.8 25.8,13.4 26.1,13.2 C26.3,13.1 26.4,13.1 26.6,13.1 C26.9,13.1 27.3,13.2 27.5,13.5 L29.9,17.4 L32.4,13.5 C32.6,13.2 32.9,13.1 33.3,13.1 C33.5,13.1 33.7,13.1 33.8,13.2 C34.1,13.4 34.3,13.7 34.3,14.1 C34.3,14.3 34.3,14.5 34.2,14.6 L31.2,19.3 L34.2,24 C34.3,24.1 34.3,24.3 34.3,24.5 C34.3,24.9 34.1,25.2 33.8,25.4 C33.6,25.5 33.4,25.5 33.2,25.5 C32.9,25.5 32.5,25.4 32.3,25.1 L29.8,21.3 L27.6,25.1 Z" id="Shape" fill="#1D4F91" fill-rule="nonzero"></path>
        <path d="M38.3,14.4 C39.4,13.4 40.9,12.8 42.6,12.8 C46.2,12.8 49.1,15.7 49.1,19.3 C49.1,22.8 46.2,25.7 42.6,25.7 C41,25.7 39.4,25.1 38.3,24.1 L38.3,29.6 C38.3,30.1 37.8,30.6 37.2,30.6 C36.7,30.6 36.2,30.1 36.2,29.6 L36.2,13.9 C36.2,13.4 36.7,12.9 37.2,12.9 C37.8,12.9 38.3,13.4 38.3,13.9 L38.3,14.4 Z M42.6,14.9 C40.2,14.9 38.3,16.8 38.3,19.2 C38.3,21.6 40.2,23.5 42.6,23.5 C45,23.5 46.9,21.6 46.9,19.2 C46.9,16.8 45,14.9 42.6,14.9 Z" id="Shape" fill="#1D4F91" fill-rule="nonzero"></path>
        <path d="M67.4,18.1 L67.4,24.6 C67.4,25.1 66.9,25.6 66.4,25.6 C65.8,25.6 65.3,25.1 65.3,24.6 L65.3,13.9 C65.3,13.4 65.8,12.9 66.4,12.9 C66.9,12.9 67.4,13.3 67.4,13.9 C68.3,13.2 69.4,12.9 70.6,12.8 C71.3,12.8 71.8,13.3 71.8,13.8 C71.8,14.4 71.3,14.9 70.6,14.9 C68.9,15 67.4,15.6 67.4,18.1" id="Shape" fill="#1D4F91" fill-rule="nonzero"></path>
        <path d="M74.8,12.9 C74.2,12.9 73.7,13.4 73.7,13.9 L73.7,24.5 C73.7,25 74.2,25.5 74.8,25.5 C75.3,25.5 75.8,25 75.8,24.5 L75.8,13.9 C75.9,13.4 75.3,12.9 74.8,12.9" id="Shape" fill="#1D4F91" fill-rule="nonzero"></path>
        <path d="M88.4,13.9 C88.4,13.4 88.9,12.9 89.5,12.9 C90,12.9 90.5,13.4 90.5,13.9 L90.5,24.5 C90.5,25 90,25.5 89.5,25.5 C88.9,25.5 88.4,25 88.4,24.5 L88.4,24 C87.3,25 85.8,25.6 84.1,25.6 C80.5,25.6 77.6,22.7 77.6,19.1 C77.6,15.6 80.5,12.7 84.1,12.7 C85.7,12.7 87.2,13.3 88.4,14.3 L88.4,13.9 Z M84.1,23.5 C86.5,23.5 88.4,21.6 88.4,19.2 C88.4,16.8 86.5,14.9 84.1,14.9 C81.7,14.9 79.8,16.8 79.8,19.2 C79.7,21.6 81.6,23.5 84.1,23.5 Z" id="Shape" fill="#1D4F91" fill-rule="nonzero"></path>
        <path d="M101.3,18.2 C101.3,16.4 99.8,14.9 98,14.9 C96.3,14.9 94.7,15.6 94.7,18.1 L94.7,24.6 C94.7,25.1 94.2,25.6 93.7,25.6 C93.1,25.6 92.6,25.1 92.6,24.6 L92.6,13.9 C92.6,13.4 93.1,12.9 93.7,12.9 C94.2,12.9 94.7,13.3 94.7,13.9 C95.6,13.2 96.7,12.8 98,12.8 C100.9,12.8 103.5,15.1 103.5,17.9 L103.5,24.5 C103.5,25 103,25.5 102.5,25.5 C101.9,25.5 101.4,25 101.4,24.5 L101.4,18.2 L101.3,18.2 Z" id="Shape" fill="#1D4F91" fill-rule="nonzero"></path>
        <path d="M25.1,18.9 C25.1,15.6 22.1,12.8 18.7,12.8 C15.1,12.8 12.2,15.7 12.2,19.2 C12.2,22.8 15.1,25.7 18.7,25.7 C20.4,25.7 22,25 23.2,23.9 C23.4,23.7 23.6,23.4 23.6,23.1 C23.6,22.5 23.1,22 22.5,22 C22.2,22 21.9,22.2 21.7,22.4 C21,23.2 19.9,23.5 18.8,23.5 C16.7,23.5 14.9,22 14.5,20 L24.1,20 C24.1,20 24.1,20 24.1,20 C24.1,20 24.1,20 24.2,20 C24.2,20 24.3,20 24.3,20 C24.7,19.9 25.1,19.4 25.1,18.9 M18.7,14.9 C20.6,14.9 22.2,16.1 22.8,17.9 L14.6,17.9 C15.1,16.2 16.7,14.9 18.7,14.9" id="Shape" fill="#1D4F91" fill-rule="nonzero"></path>
        <path d="M63.4,18.9 C63.3,15.6 60.4,12.8 57,12.8 C53.4,12.8 50.5,15.7 50.5,19.2 C50.5,22.8 53.4,25.7 57,25.7 C58.7,25.7 60.3,25 61.5,23.9 C61.7,23.7 61.9,23.4 61.9,23.1 C61.9,22.5 61.4,22 60.8,22 C60.5,22 60.2,22.2 60,22.4 C59.3,23.2 58.2,23.5 57.1,23.5 C55,23.5 53.2,22 52.8,20 L62.4,20 C62.4,20 62.4,20 62.4,20 C62.4,20 62.5,20 62.5,20 C62.5,20 62.5,20 62.5,20 C63,19.9 63.4,19.4 63.4,18.9 M57,14.9 C58.9,14.9 60.5,16.1 61.1,17.9 L52.9,17.9 C53.5,16.2 55.1,14.9 57,14.9" id="Shape" fill="#1D4F91" fill-rule="nonzero"></path>
        <path d="M105.7,25.6 C105.6,25.6 105.5,25.5 105.5,25.4 L105.5,23.6 L105.1,23.6 C105,23.6 104.9,23.5 104.9,23.4 C104.9,23.3 105,23.2 105.1,23.2 L106.3,23.2 C106.4,23.2 106.5,23.3 106.5,23.4 C106.5,23.5 106.4,23.6 106.3,23.6 L105.9,23.6 L105.9,25.4 C105.8,25.5 105.8,25.6 105.7,25.6" id="Shape" fill="#1D4F91" fill-rule="nonzero"></path>
        <path d="M107.7,25.6 C107.6,25.6 107.5,25.5 107.5,25.5 L107,24 L107,25.4 C107,25.5 106.9,25.6 106.8,25.6 C106.7,25.6 106.6,25.5 106.6,25.4 L106.6,23.5 C106.6,23.4 106.7,23.2 106.9,23.2 C107,23.2 107.1,23.3 107.2,23.4 L107.7,24.9 L108.2,23.4 C108.2,23.3 108.3,23.2 108.5,23.2 C108.6,23.2 108.8,23.3 108.8,23.5 L108.8,25.4 C108.8,25.5 108.7,25.6 108.6,25.6 C108.5,25.6 108.4,25.5 108.4,25.4 L108.4,24 C108.3,24.2 108.2,24.6 108.1,24.9 C107.9,25.5 107.9,25.5 107.9,25.5 C107.9,25.5 107.8,25.6 107.7,25.6" id="Shape" fill="#1D4F91" fill-rule="nonzero"></path>
    </g>
</svg>