<?xml version="1.0" encoding="UTF-8"?>
<svg width="16px" height="16px" viewBox="0 0 16 16" version="1.1" xmlns="http://www.w3.org/2000/svg" xmlns:xlink="http://www.w3.org/1999/xlink">
    <!-- Generator: Sketch 51.2 (57519) - http://www.bohemiancoding.com/sketch -->
    <title>Shape</title>
    <desc>Created with Sketch.</desc>
    <defs></defs>
    <g id="Symbols" stroke="none" stroke-width="1" fill="none" fill-rule="evenodd">
        <g id="✱-/Header/ContextBar/Icon/Default" transform="translate(-21.000000, -24.000000)" fill="#426DA9" fill-rule="nonzero">
            <path d="M26.9428571,24 C30.2250065,24 32.8857143,26.6607078 32.8857143,29.9428571 C32.8857143,31.4148571 32.3462857,32.768 31.4594286,33.8102857 L31.7062857,34.0571429 L32.4285714,34.0571429 L37,38.6285714 L35.6285714,40 L31.0571429,35.4285714 L31.0571429,34.7062857 L30.8102857,34.4594286 C29.768,35.3462857 28.4148571,35.8857143 26.9428571,35.8857143 C23.6607078,35.8857143 21,33.2250065 21,29.9428571 C21,26.6607078 23.6607078,24 26.9428571,24 Z M26.9428571,25.8285714 C24.6571429,25.8285714 22.8285714,27.6571429 22.8285714,29.9428571 C22.8285714,32.2285714 24.6571429,34.0571429 26.9428571,34.0571429 C29.2285714,34.0571429 31.0571429,32.2285714 31.0571429,29.9428571 C31.0571429,27.6571429 29.2285714,25.8285714 26.9428571,25.8285714 Z" id="Shape"></path>
        </g>
    </g>
</svg>